<svg width="865" height="780" viewBox="0 0 865 780" fill="none" xmlns="http://www.w3.org/2000/svg">
<g id="Frame" clip-path="url(#clip0)">
<g id="Group">
<path id="Vector" d="M839.858 29H457.142C436.077 29 419 46.0766 419 67.1417V584.858C419 605.923 436.077 623 457.142 623H839.858C860.923 623 878 605.923 878 584.858V67.1417C878 46.0766 860.923 29 839.858 29Z" fill="#F2F2F2"/>
<path id="Vector_2" d="M817.858 2H435.142C414.077 2 397 19.0766 397 40.1417V557.858C397 578.923 414.077 596 435.142 596H817.858C838.923 596 856 578.923 856 557.858V40.1417C856 19.0766 838.923 2 817.858 2Z" stroke="#3F3D56" stroke-miterlimit="10"/>
<path id="Vector_3" d="M828.5 63.4706H420.5V534.529H828.5V63.4706Z" stroke="#3F3D56" stroke-miterlimit="10"/>
<path id="Vector_4" d="M626.5 42.5C632.023 42.5 636.5 38.0228 636.5 32.5C636.5 26.9772 632.023 22.5 626.5 22.5C620.977 22.5 616.5 26.9772 616.5 32.5C616.5 38.0228 620.977 42.5 626.5 42.5Z" stroke="#3F3D56" stroke-miterlimit="10"/>
<path id="Vector_5" d="M626.5 587C638.65 587 648.5 577.15 648.5 565C648.5 552.85 638.65 543 626.5 543C614.35 543 604.5 552.85 604.5 565C604.5 577.15 614.35 587 626.5 587Z" stroke="#3F3D56" stroke-miterlimit="10"/>
<path id="PIN" d="M613.99 115.067C605.19 115.067 596.477 116.8 588.347 120.168C580.217 123.535 572.83 128.471 566.607 134.694C560.385 140.916 555.449 148.303 552.081 156.433C548.714 164.563 546.98 173.277 546.98 182.077C546.98 219.085 617.181 355.584 617.181 355.584C617.181 355.584 681 219.085 681 182.077C681 164.305 673.94 147.261 661.373 134.694C648.806 122.127 631.762 115.067 613.99 115.067ZM613.99 226.75C607.048 226.75 600.262 224.691 594.49 220.835C588.717 216.978 584.218 211.496 581.562 205.082C578.905 198.668 578.21 191.611 579.564 184.802C580.919 177.993 584.262 171.739 589.171 166.83C594.079 161.921 600.334 158.578 607.142 157.224C613.951 155.869 621.009 156.565 627.423 159.221C633.836 161.878 639.318 166.377 643.175 172.149C647.032 177.921 649.091 184.707 649.091 191.65C649.091 200.959 645.392 209.887 638.81 216.469C632.227 223.052 623.299 226.75 613.99 226.75Z" fill="#6C63FF"/>
<path id="Vector_6" d="M614 424C651.003 424 681 414.15 681 402C681 389.85 651.003 380 614 380C576.997 380 547 389.85 547 402C547 414.15 576.997 424 614 424Z" fill="#6C63FF"/>
<path id="Vector_7" d="M374.88 97.4574C370.618 97.6982 366.506 99.1216 363.007 101.568C359.508 104.015 356.76 107.387 355.071 111.308C350.117 123.282 356.495 137.347 366.07 146.079C375.644 154.81 387.943 159.801 399.118 166.361C414.127 175.172 427.615 187.404 435.125 203.105C442.635 218.806 443.434 238.255 434.606 253.255C426.412 267.177 411.513 275.51 397.304 283.194" stroke="#3F3D56" stroke-miterlimit="10"/>
<path id="Vector_8" d="M387.5 107C397.165 107 405 103.194 405 98.5C405 93.8056 397.165 90 387.5 90C377.835 90 370 93.8056 370 98.5C370 103.194 377.835 107 387.5 107Z" fill="#57B894"/>
<path id="Vector_9" d="M401.5 163C411.165 163 419 159.194 419 154.5C419 149.806 411.165 146 401.5 146C391.835 146 384 149.806 384 154.5C384 159.194 391.835 163 401.5 163Z" fill="#57B894"/>
<path id="Vector_10" d="M369.5 172C379.165 172 387 168.194 387 163.5C387 158.806 379.165 155 369.5 155C359.835 155 352 158.806 352 163.5C352 168.194 359.835 172 369.5 172Z" fill="#57B894"/>
<path id="Vector_11" d="M419.5 219C429.165 219 437 215.194 437 210.5C437 205.806 429.165 202 419.5 202C409.835 202 402 205.806 402 210.5C402 215.194 409.835 219 419.5 219Z" fill="#57B894"/>
<path id="Vector_12" d="M454.5 219C464.165 219 472 215.194 472 210.5C472 205.806 464.165 202 454.5 202C444.835 202 437 205.806 437 210.5C437 215.194 444.835 219 454.5 219Z" fill="#57B894"/>
<path id="Vector_13" d="M60.4907 780.064H419" stroke="#3F3D56" stroke-miterlimit="10"/>
<path id="Vector_14" d="M47.3428 606.823C43.3735 607.047 39.545 608.372 36.2867 610.651C33.0285 612.929 30.4692 616.069 28.896 619.721C24.2833 630.871 30.2224 643.968 39.1382 652.098C48.0539 660.229 59.5067 664.877 69.9125 670.985C83.8893 679.19 96.4485 690.58 103.442 705.201C110.435 719.822 111.179 737.932 102.959 751.9C95.3288 764.864 81.4551 772.624 68.2231 779.78" stroke="#3F3D56" stroke-miterlimit="10"/>
<path id="Vector_15" d="M59.0942 615.709C68.0942 615.709 75.3901 612.165 75.3901 607.794C75.3901 603.422 68.0942 599.878 59.0942 599.878C50.0942 599.878 42.7983 603.422 42.7983 607.794C42.7983 612.165 50.0942 615.709 59.0942 615.709Z" fill="#57B894"/>
<path id="Vector_16" d="M72.1308 667.856C81.1308 667.856 88.4267 664.312 88.4267 659.94C88.4267 655.569 81.1308 652.025 72.1308 652.025C63.1309 652.025 55.835 655.569 55.835 659.94C55.835 664.312 63.1309 667.856 72.1308 667.856Z" fill="#57B894"/>
<path id="Vector_17" d="M42.3325 676.236C51.3325 676.236 58.6284 672.693 58.6284 668.321C58.6284 663.95 51.3325 660.406 42.3325 660.406C33.3325 660.406 26.0366 663.95 26.0366 668.321C26.0366 672.693 33.3325 676.236 42.3325 676.236Z" fill="#57B894"/>
<path id="Vector_18" d="M88.8921 720.002C97.892 720.002 105.188 716.459 105.188 712.087C105.188 707.716 97.892 704.172 88.8921 704.172C79.8921 704.172 72.5962 707.716 72.5962 712.087C72.5962 716.459 79.8921 720.002 88.8921 720.002Z" fill="#57B894"/>
<path id="Vector_19" d="M121.484 720.002C130.484 720.002 137.78 716.459 137.78 712.087C137.78 707.716 130.484 704.172 121.484 704.172C112.484 704.172 105.188 707.716 105.188 712.087C105.188 716.459 112.484 720.002 121.484 720.002Z" fill="#57B894"/>
<path id="Vector_20" d="M86.8566 638.802C90.0982 638.985 93.2248 640.068 95.8857 641.928C98.5466 643.789 100.637 646.353 101.922 649.335C105.689 658.441 100.838 669.137 93.557 675.777C86.2758 682.417 76.9227 686.213 68.4247 691.201C57.0103 697.902 46.7536 707.204 41.0423 719.144C35.3311 731.084 34.7236 745.875 41.4369 757.282C47.668 767.869 58.9982 774.206 69.8043 780.05" stroke="#3F3D56" stroke-miterlimit="10"/>
<path id="Vector_21" d="M77.26 646.059C84.6099 646.059 90.5683 643.165 90.5683 639.595C90.5683 636.025 84.6099 633.131 77.26 633.131C69.91 633.131 63.9517 636.025 63.9517 639.595C63.9517 643.165 69.91 646.059 77.26 646.059Z" fill="#57B894"/>
<path id="Vector_22" d="M66.6135 688.645C73.9634 688.645 79.9218 685.751 79.9218 682.181C79.9218 678.611 73.9634 675.717 66.6135 675.717C59.2635 675.717 53.3052 678.611 53.3052 682.181C53.3052 685.751 59.2635 688.645 66.6135 688.645Z" fill="#57B894"/>
<path id="Vector_23" d="M90.9484 695.49C98.2984 695.49 104.257 692.596 104.257 689.026C104.257 685.456 98.2984 682.562 90.9484 682.562C83.5985 682.562 77.6401 685.456 77.6401 689.026C77.6401 692.596 83.5985 695.49 90.9484 695.49Z" fill="#57B894"/>
<path id="Vector_24" d="M52.925 731.232C60.275 731.232 66.2333 728.338 66.2333 724.768C66.2333 721.198 60.275 718.304 52.925 718.304C45.575 718.304 39.6167 721.198 39.6167 724.768C39.6167 728.338 45.575 731.232 52.925 731.232Z" fill="#57B894"/>
<path id="Vector_25" d="M26.3083 731.232C33.6583 731.232 39.6166 728.338 39.6166 724.768C39.6166 721.198 33.6583 718.304 26.3083 718.304C18.9583 718.304 13 721.198 13 724.768C13 728.338 18.9583 731.232 26.3083 731.232Z" fill="#57B894"/>
<path id="Vector_26" d="M142.845 739.004C142.845 739.004 152.157 743.66 158.676 744.592C165.194 745.523 168.86 738.93 167.493 736.639C166.125 734.348 171.712 736.211 175.437 744.592C175.437 744.592 191.267 763.215 200.579 764.147C209.891 765.078 209.964 777.685 205.235 778.115C200.114 778.58 191.267 781.839 180.093 778.115C168.919 774.39 158.676 764.147 154.02 764.147C149.364 764.147 133.533 756.697 138.189 752.972C142.845 749.248 142.845 739.004 142.845 739.004Z" fill="#3F3D56"/>
<path id="Vector_27" d="M234.624 760.044C239.378 760.409 244.159 760.116 248.832 759.172C255.231 757.617 256.188 750.134 254.068 748.514C251.948 746.895 257.827 746.551 264.396 752.95C264.396 752.95 286.009 764.367 295.001 761.775C303.993 759.184 308.74 770.863 304.509 773.017C297.334 776.952 289.357 779.202 281.184 779.599C269.425 780.288 256.091 777.33 251.768 779.058C247.444 780.786 229.98 779.745 232.921 774.558C235.861 769.371 234.624 760.044 234.624 760.044Z" fill="#3F3D56"/>
<path id="Vector_28" d="M218.794 315.865C238.851 315.865 255.11 299.605 255.11 279.548C255.11 259.491 238.851 243.232 218.794 243.232C198.736 243.232 182.477 259.491 182.477 279.548C182.477 299.605 198.736 315.865 218.794 315.865Z" fill="#FFC1C7"/>
<path id="Vector_29" d="M190.392 293.982C190.392 293.982 195.98 333.092 182.943 338.679C169.906 344.266 249.058 342.404 249.058 342.404C249.058 342.404 237.883 307.018 240.677 297.706C243.47 288.394 190.392 293.982 190.392 293.982Z" fill="#FFC1C7"/>
<path id="Vector_30" d="M177.356 516.537C177.356 516.537 174.562 587.307 171.768 594.757C168.975 602.206 166.181 652.491 166.181 652.491L141.97 743.748L164.319 751.197C164.319 751.197 195.048 697.188 198.773 690.67C202.498 684.151 232.296 579.858 232.296 579.858C232.296 579.858 229.502 644.11 229.502 665.527C229.502 686.945 235.09 765.165 235.09 765.165L252.782 763.303L276.062 664.596C276.062 664.596 309.585 531.436 287.236 516.537C264.888 501.638 177.356 516.537 177.356 516.537Z" fill="#2F2E41"/>
<path id="Vector_31" d="M313.31 538.885C313.31 538.885 314.241 592.894 303.066 584.514C291.892 576.133 303.066 534.229 303.066 534.229L313.31 538.885Z" fill="#FFC1C7"/>
<path id="Vector_32" d="M158.731 520.261C158.731 520.261 159.663 574.271 148.488 565.89C137.314 557.509 148.488 515.605 148.488 515.605L158.731 520.261Z" fill="#FFC1C7"/>
<path id="Vector_33" d="M295.617 362.89C295.617 362.89 276.993 341.473 261.163 344.266C245.333 347.06 158.732 346.128 158.732 346.128C158.732 346.128 129.865 382.445 137.314 389.894C144.764 397.344 168.975 529.573 168.975 529.573C168.975 529.573 233.227 521.193 255.576 521.193C277.924 521.193 287.236 517.468 287.236 517.468C287.236 517.468 257.438 457.872 271.406 430.867C285.374 403.862 305.86 374.995 305.86 374.995L295.617 362.89Z" fill="#6C63FF"/>
<path id="Vector_34" d="M290.03 369.408L305.86 374.995C305.86 374.995 315.172 407.587 315.172 433.66C315.172 459.734 316.103 472.771 319.828 482.082C323.553 491.394 335.658 535.161 329.14 544.472C325.541 549.773 321.144 554.485 316.103 558.44L294.686 556.578C294.686 556.578 293.755 525.849 288.168 523.055C282.58 520.261 275.131 502.569 275.131 502.569C275.131 502.569 257.438 445.766 268.613 427.142C279.787 408.518 290.03 369.408 290.03 369.408Z" fill="#6C63FF"/>
<path id="Vector_35" d="M230.434 403.862C230.434 403.862 239.746 362.89 222.053 364.752C204.36 366.615 180.149 367.546 173.631 367.546C167.113 367.546 129.865 362.89 124.278 387.101C118.691 411.312 111.241 441.11 127.071 459.734C127.071 459.734 132.658 541.679 154.076 547.266C175.493 552.853 232.296 559.371 252.782 532.367C273.269 505.362 264.888 475.564 264.888 475.564H255.576L230.434 403.862Z" fill="#3F3D56"/>
<path id="Vector_36" d="M261.163 477.427L268.612 427.142L264.888 479.289L261.163 477.427Z" fill="#3F3D56"/>
<path id="Vector_37" opacity="0.1" d="M136.383 466.252C136.383 466.252 152.213 473.702 184.805 469.046V483.014L136.383 479.289V466.252Z" fill="black"/>
<path id="Vector_38" d="M221.587 364.287L245.798 351.25L225.312 368.943L221.587 364.287Z" fill="#3F3D56"/>
<path id="Vector_39" d="M273.268 350.784C273.268 350.784 291.892 357.303 291.892 350.784C291.892 344.266 275.131 338.679 264.887 334.954C254.644 331.229 206.222 325.642 198.773 322.849C191.323 320.055 155.938 315.399 153.144 326.573C150.351 337.748 149.42 361.028 163.387 363.821C177.355 366.615 213.672 359.165 232.296 361.028C250.92 362.89 273.268 350.784 273.268 350.784Z" fill="#6C63FF"/>
<path id="Vector_40" opacity="0.1" d="M273.268 350.784C273.268 350.784 291.892 357.303 291.892 350.784C291.892 344.266 275.131 338.679 264.887 334.954C254.644 331.229 206.222 325.642 198.773 322.849C191.323 320.055 155.938 315.399 153.144 326.573C150.351 337.748 149.42 361.028 163.387 363.821C177.355 366.615 213.672 359.165 232.296 361.028C250.92 362.89 273.268 350.784 273.268 350.784Z" fill="black"/>
<path id="Vector_41" d="M143.367 371.736L149.696 358.442L150.817 374.53L143.367 371.736Z" fill="#3F3D56"/>
<path id="Vector_42" d="M212.5 317.032C231.278 317.032 246.5 299.347 246.5 277.532C246.5 255.717 231.278 238.032 212.5 238.032C193.722 238.032 178.5 255.717 178.5 277.532C178.5 299.347 193.722 317.032 212.5 317.032Z" fill="#2F2E41"/>
<path id="Vector_43" d="M218.5 278.032C237.278 278.032 252.5 268.406 252.5 256.532C252.5 244.658 237.278 235.032 218.5 235.032C199.722 235.032 184.5 244.658 184.5 256.532C184.5 268.406 199.722 278.032 218.5 278.032Z" fill="#2F2E41"/>
<path id="Vector_44" d="M245 295.032C246.933 295.032 248.5 292.346 248.5 289.032C248.5 285.718 246.933 283.032 245 283.032C243.067 283.032 241.5 285.718 241.5 289.032C241.5 292.346 243.067 295.032 245 295.032Z" fill="#FFC1C7"/>
<path id="Vector_45" d="M240.118 251.119C243.695 249.161 246.75 245.622 249.038 240.787C249.262 241.862 249.322 242.964 249.217 244.057C250.702 243.89 252.144 243.455 253.474 242.773L253.155 246.259C255.725 244.685 258.086 242.794 260.184 240.631C260.753 245.716 259.901 250.86 257.722 255.49C255.867 259.153 253.346 261.535 250.851 263.882" fill="#2F2E41"/>
</g>
</g>
<defs>
<clipPath id="clip0">
<rect width="865" height="780" fill="white"/>
</clipPath>
</defs>
</svg>
