<?xml version="1.0"?>
<svg fill="#ffffff" xmlns="http://www.w3.org/2000/svg" viewBox="0 0 192 192" width="512" height="512"><g id="_10-drink" data-name="10-drink"><path d="M176,16V0H136a8,8,0,0,0-7.544,5.337L116.222,40H47a8.08,8.08,0,0,0-7.938,8.992l17,136A8,8,0,0,0,64,192h63a8,8,0,0,0,7.938-7.008l17-136A8.08,8.08,0,0,0,144,40H133.19l8.47-24ZM110.575,56l-5.647,16H58.063l-2-16Zm9.363,120H71.063l-11-88H99.281L80.456,141.337l15.088,5.326L116.248,88h14.69Zm15-120-2,16H121.9l5.646-16Z"/><circle cx="80" cy="104" r="8"/><circle cx="96" cy="160" r="8"/><circle cx="112" cy="136" r="8"/></g></svg>
