<svg width="35" height="28" viewBox="0 0 35 28" fill="none" xmlns="http://www.w3.org/2000/svg">
<g clip-path="url(#clip0)">
<path d="M15.5818 12.5798H14.7764C14.1135 12.5798 13.5742 13.0112 13.5742 13.5415V24.7646C13.5742 25.2949 14.1135 25.7264 14.7764 25.7264H15.5818C16.2446 25.7264 16.7839 25.2949 16.7839 24.7646V13.5415C16.7839 13.0112 16.2447 12.5798 15.5818 12.5798ZM15.7581 24.7646C15.7581 24.8424 15.679 24.9057 15.5818 24.9057H14.7764C14.6792 24.9057 14.6001 24.8424 14.6001 24.7646V13.5415C14.6001 13.4637 14.6791 13.4005 14.7764 13.4005H15.5818C15.6789 13.4005 15.7581 13.4637 15.7581 13.5415V24.7646Z" fill="white"/>
<path d="M11.2522 15.3502C10.9689 15.3502 10.7393 15.5339 10.7393 15.7606V24.7647C10.7393 24.8424 10.6602 24.9057 10.563 24.9057H9.75759C9.66041 24.9057 9.58128 24.8424 9.58128 24.7647V15.6588C9.58128 15.4321 9.35162 15.2484 9.06835 15.2484C8.78508 15.2484 8.55542 15.4321 8.55542 15.6588V24.7647C8.55542 25.295 9.09468 25.7264 9.75759 25.7264H10.563C11.2258 25.7264 11.7651 25.295 11.7651 24.7647V15.7606C11.7651 15.5339 11.5355 15.3502 11.2522 15.3502Z" fill="white"/>
<path d="M20.6688 12.5798H19.8635C19.2006 12.5798 18.6614 13.0112 18.6614 13.5415V17.0512C18.6614 17.2779 18.891 17.4616 19.1743 17.4616C19.4576 17.4616 19.6872 17.2779 19.6872 17.0512V13.5415C19.6872 13.4638 19.7663 13.4005 19.8635 13.4005H20.6688C20.7661 13.4005 20.8452 13.4638 20.8452 13.5415V24.7647C20.8452 24.8424 20.7661 24.9057 20.6688 24.9057H19.8635C19.7663 24.9057 19.6872 24.8424 19.6872 24.7647V18.7999C19.6872 18.5733 19.4576 18.3896 19.1743 18.3896C18.891 18.3896 18.6614 18.5733 18.6614 18.7999V24.7647C18.6614 25.295 19.2006 25.7264 19.8635 25.7264H20.6688C21.3317 25.7264 21.871 25.295 21.871 24.7647V13.5415C21.871 13.0112 21.3317 12.5798 20.6688 12.5798Z" fill="white"/>
<path d="M27.4745 9.31896H24.4794V8.41506C25.2754 8.06287 25.8157 7.38438 25.8157 6.60664C25.8157 6.05498 25.5472 5.5363 25.0596 5.14626C24.572 4.75616 23.9237 4.5413 23.2341 4.54136H22.4748V4.3068C22.4748 3.16802 21.3167 2.24152 19.8932 2.24152H18.3385C18.1675 0.98291 16.8311 0 15.2132 0C13.5953 0 12.2589 0.98291 12.0879 2.24152H10.5332C9.10967 2.24152 7.95155 3.16802 7.95155 4.3068V4.54136H7.19227C5.76879 4.54136 4.6106 5.46786 4.6106 6.60664C4.6106 7.3619 5.12024 8.02342 5.87863 8.3836V25.2976C5.87863 26.7877 7.39396 28 9.25651 28H21.1015C22.964 28 24.4794 26.7877 24.4794 25.2976V22.6828H27.4746C29.0821 22.6828 30.3898 21.6367 30.3898 20.3507V11.6511C30.3897 10.3651 29.082 9.31896 27.4745 9.31896ZM7.19227 5.36204H8.46448C8.74775 5.36204 8.97741 5.17837 8.97741 4.9517V4.3068C8.97741 3.62055 9.67533 3.0622 10.5332 3.0622H12.4113C12.7885 3.0622 13.0953 2.81676 13.0953 2.51502C13.0953 1.58075 14.0454 0.820688 15.2132 0.820688C16.381 0.820688 17.3311 1.58075 17.3311 2.51502C17.3311 2.81676 17.638 3.0622 18.0152 3.0622H19.8933C20.7511 3.0622 21.4491 3.62055 21.4491 4.3068V4.9517C21.4491 5.17837 21.6786 5.36204 21.962 5.36204H23.2342C23.6497 5.36204 24.0404 5.49144 24.3343 5.72654C24.6281 5.96164 24.7899 6.27421 24.7899 6.60664C24.7899 7.2929 24.092 7.85124 23.2342 7.85124H14.9117C13.9346 7.85124 13.0161 8.15561 12.3252 8.70831C11.6343 9.26108 11.2538 9.99592 11.2538 10.7775V13.0819C11.2538 13.4803 10.8486 13.8045 10.3506 13.8045C9.8526 13.8045 9.44745 13.4803 9.44745 13.0819V8.75296C9.44745 8.25573 8.94177 7.85124 8.32024 7.85124H7.19221C6.33438 7.85124 5.63646 7.2929 5.63646 6.60664C5.63646 5.92038 6.33438 5.36204 7.19227 5.36204ZM7.19221 8.67193H8.32024C8.37612 8.67193 8.4216 8.70831 8.4216 8.75296V10.0083H6.90449V8.6588C6.999 8.66723 7.09495 8.67193 7.19221 8.67193ZM21.1015 27.1793H9.25651C7.95962 27.1793 6.90449 26.3352 6.90449 25.2976V10.829H8.4216V13.082C8.4216 13.9329 9.28694 14.6252 10.3506 14.6252C11.4143 14.6252 12.2796 13.9329 12.2796 13.082V10.829H19.1732C19.4566 10.829 19.6862 10.6454 19.6862 10.4187C19.6862 10.192 19.4566 10.0083 19.1732 10.0083H12.4608C12.5914 9.74183 12.7899 9.49716 13.0505 9.2887C13.5477 8.89095 14.2087 8.67199 14.9117 8.67199H23.2341C23.3081 8.67199 23.3811 8.66892 23.4535 8.664V10.0084H21.3591C21.0758 10.0084 20.8462 10.1921 20.8462 10.4187C20.8462 10.6454 21.0758 10.8291 21.3591 10.8291H23.4535V25.2977C23.4535 26.3352 22.3985 27.1793 21.1015 27.1793ZM29.3638 20.3507C29.3638 21.1841 28.5163 21.8621 27.4745 21.8621H24.4794V20.932H27.4745C27.8752 20.932 28.2012 20.6712 28.2012 20.3507V15.3326C28.2012 15.106 27.9716 14.9223 27.6883 14.9223C27.4049 14.9223 27.1753 15.106 27.1753 15.3326V20.1113H24.4794V11.8904H27.1753V13.5839C27.1753 13.8106 27.4049 13.9943 27.6883 13.9943C27.9716 13.9943 28.2012 13.8106 28.2012 13.5839V11.6511C28.2012 11.3306 27.8752 11.0698 27.4745 11.0698H24.4794V10.1396H27.4745C28.5163 10.1396 29.3638 10.8177 29.3638 11.6511V20.3507Z" fill="white"/>
</g>
<defs>
<clipPath id="clip0">
<rect width="35" height="28" fill="white"/>
</clipPath>
</defs>
</svg>
