<svg width="24" height="25" viewBox="0 0 24 25" fill="none" xmlns="http://www.w3.org/2000/svg">
<g clip-path="url(#clip0)">
<path d="M1.72329 11.1376C1.2647 11.1376 0.892822 11.5249 0.892822 12.0027C0.892822 14.354 1.50834 16.5912 2.67286 18.4721C3.81411 20.3155 5.44612 21.7022 7.26785 22.3766C7.35715 22.4096 7.45121 22.4265 7.54591 22.4265H12.3433C12.438 22.4265 12.5321 22.4096 12.6214 22.3766C14.4432 21.7022 16.0751 20.3155 17.2164 18.4721C17.5262 17.9717 17.7959 17.4455 18.0266 16.8993H19.9568C21.4817 16.8993 22.7223 15.6069 22.7223 14.0184C22.7223 12.4301 21.4817 11.1377 19.9568 11.1377H1.72329V11.1376ZM21.0616 14.0184C21.0616 14.653 20.5661 15.1692 19.957 15.1692H18.606C18.7946 14.4248 18.9171 13.6549 18.9684 12.8678H19.957C20.5661 12.8678 21.0616 13.3839 21.0616 14.0184ZM17.3018 12.8678C17.02 16.4567 15.0052 19.5849 12.1959 20.6964H7.69355C4.88418 19.5849 2.86947 16.4567 2.58761 12.8678H17.3018Z" fill="white"/>
<path d="M22.2768 23.27H1.72329C1.2647 23.27 0.892822 23.6572 0.892822 24.135C0.892822 24.6128 1.2647 25 1.72329 25H22.2767C22.7353 25 23.1072 24.6127 23.1072 24.1349C23.1072 23.6572 22.7354 23.27 22.2768 23.27Z" fill="white"/>
<path d="M4.49904 10.0677C4.65985 10.3128 4.92037 10.4447 5.18534 10.4447C5.34672 10.4447 5.50987 10.3958 5.65322 10.2938C6.03189 10.0242 6.12902 9.48595 5.87027 9.0915C5.86211 9.07896 5.05791 7.82719 5.73314 6.60472C6.93799 4.42332 5.60062 2.55489 5.54316 2.47644C5.26478 2.09681 4.74373 2.02416 4.37912 2.31389C4.01468 2.60388 3.94478 3.14672 4.22308 3.52644C4.23044 3.53645 4.95351 4.54706 4.29355 5.74184C3.10381 7.89563 4.44151 9.97997 4.49904 10.0677Z" fill="white"/>
<path d="M9.43078 9.85885C9.58011 10.1511 9.86746 10.3177 10.1646 10.3177C10.2961 10.3177 10.4296 10.285 10.5539 10.2162C10.9588 9.99176 11.1124 9.46794 10.897 9.04614C10.8875 9.02745 9.95182 7.15784 10.7024 5.34875C11.7757 2.76163 10.5292 0.518529 10.4756 0.424253C10.2418 0.0133101 9.73267 -0.122633 9.33785 0.12097C8.94334 0.364489 8.81292 0.895128 9.04669 1.30616C9.0555 1.32164 9.91918 2.87577 9.17785 4.66247C8.11393 7.22703 9.37655 9.75254 9.43078 9.85885Z" fill="white"/>
<path d="M14.4637 9.94067C14.6245 10.1858 14.885 10.3177 15.15 10.3177C15.3113 10.3177 15.4745 10.2688 15.6178 10.1668C15.9965 9.89723 16.0936 9.35893 15.8349 8.96449C15.8267 8.95195 15.0225 7.70018 15.6978 6.4777C16.9026 4.29631 15.5652 2.42787 15.5078 2.34942C15.2294 1.96979 14.7083 1.89715 14.3437 2.18688C13.9793 2.47686 13.9094 3.01971 14.1877 3.39942C14.195 3.40944 14.9181 4.42004 14.2582 5.61483C13.0684 7.76861 14.406 9.85304 14.4637 9.94067Z" fill="white"/>
</g>
<defs>
<clipPath id="clip0">
<rect width="24" height="25" fill="white"/>
</clipPath>
</defs>
</svg>
