<?xml version="1.0" encoding="iso-8859-1"?>
<!-- Generator: Adobe Illustrator 19.0.0, SVG Export Plug-In . SVG Version: 6.00 Build 0)  -->
<svg version="1.1" id="Layer_1" xmlns="http://www.w3.org/2000/svg" xmlns:xlink="http://www.w3.org/1999/xlink" x="0px" y="0px"
	 viewBox="0 0 512 512" style="enable-background:new 0 0 512 512;" xml:space="preserve">
<rect y="255.35" style="fill:#57555C;" width="73.24" height="152.12"/>
<rect y="332.15" style="fill:#3C3A41;" width="73.24" height="75.32"/>
<polygon style="fill:#57555C;" points="512,232.4 512,429.15 463.07,429.15 450,422.99 362.36,381.72 362.36,286.22 450,238.93 
	462.1,232.4 "/>
<polygon style="fill:#3C3A41;" points="512,332.15 512,429.15 463.07,429.15 450,422.99 362.36,381.72 362.36,332.15 "/>
<polygon style="fill:#AEADB3;" points="480,232.4 480,429.15 463.07,429.15 450,422.99 450,238.93 462.1,232.4 "/>
<path style="fill:#006469;" d="M392.36,245.5v169.36c0,16.33-13.75,29.61-30.65,29.61H73.89c-16.9,0-30.65-13.28-30.65-29.61V245.5
	c0-5.83,1.8-11.52,5.12-16.35h338.88C390.58,234.02,392.36,239.66,392.36,245.5z"/>
<rect x="128.77" y="282.81" style="fill:#FFFFFF;" width="172.49" height="30"/>
<path style="fill:#57555C;" d="M222.96,166.43c0,54.53-44.36,98.89-98.89,98.89H124c-54.51-0.04-98.83-44.38-98.83-98.89
	c0-54.52,44.32-98.86,98.83-98.9h0.07C178.6,67.53,222.96,111.89,222.96,166.43z"/>
<path style="fill:#AEADB3;" d="M124.07,113.72H124c-29.04,0.04-52.64,23.66-52.64,52.71c0,29.04,23.6,52.66,52.64,52.7h0.07
	c29.06,0,52.7-23.64,52.7-52.7C176.77,137.36,153.13,113.72,124.07,113.72z M124.07,189.13H124c-12.5-0.04-22.64-10.2-22.64-22.7
	c0-12.51,10.14-22.67,22.64-22.71h0.07c12.52,0,22.7,10.18,22.7,22.71C146.77,178.95,136.59,189.13,124.07,189.13z"/>
<path style="fill:#3C3A41;" d="M222.96,166.43c0,54.53-44.36,98.89-98.89,98.89H124V67.53h0.07
	C178.6,67.53,222.96,111.89,222.96,166.43z"/>
<path style="fill:#8B8892;" d="M176.77,166.43c0,29.06-23.64,52.7-52.7,52.7H124v-30h0.07c12.52,0,22.7-10.18,22.7-22.7
	c0-12.53-10.18-22.71-22.7-22.71H124v-30h0.07C153.13,113.72,176.77,137.36,176.77,166.43z"/>
<path style="fill:#57555C;" d="M420.79,166.43c0,54.53-44.36,98.89-98.89,98.89h-0.07c-54.51-0.04-98.83-44.38-98.83-98.89
	c0-54.52,44.32-98.86,98.83-98.9h0.07C376.43,67.53,420.79,111.89,420.79,166.43z"/>
<path style="fill:#AEADB3;" d="M321.9,113.72h-0.07c-29.04,0.04-52.64,23.66-52.64,52.71c0,29.04,23.6,52.66,52.64,52.7h0.07
	c29.06,0,52.7-23.64,52.7-52.7C374.6,137.36,350.96,113.72,321.9,113.72z M321.9,189.13h-0.07c-12.5-0.04-22.64-10.2-22.64-22.7
	c0-12.51,10.14-22.67,22.64-22.71h0.07c12.52,0,22.7,10.18,22.7,22.71C344.6,178.95,334.42,189.13,321.9,189.13z"/>
<path style="fill:#3C3A41;" d="M420.79,166.43c0,54.53-44.36,98.89-98.89,98.89h-0.07V67.53h0.07
	C376.43,67.53,420.79,111.89,420.79,166.43z"/>
<path style="fill:#8B8892;" d="M374.6,166.43c0,29.06-23.64,52.7-52.7,52.7h-0.07v-30h0.07c12.52,0,22.7-10.18,22.7-22.7
	c0-12.53-10.18-22.71-22.7-22.71h-0.07v-30h0.07C350.96,113.72,374.6,137.36,374.6,166.43z"/>
<path style="fill:#005455;" d="M43.24,332.15h349.12v82.71c0,16.33-13.75,29.61-30.65,29.61H73.89c-16.9,0-30.65-13.28-30.65-29.61
	C43.24,414.86,43.24,332.15,43.24,332.15z"/>
<polygon style="fill:#8B8892;" points="480,332.15 480,429.15 463.07,429.15 450,422.99 450,332.15 "/>
<g>
</g>
<g>
</g>
<g>
</g>
<g>
</g>
<g>
</g>
<g>
</g>
<g>
</g>
<g>
</g>
<g>
</g>
<g>
</g>
<g>
</g>
<g>
</g>
<g>
</g>
<g>
</g>
<g>
</g>
</svg>
