<svg width="27" height="27" viewBox="0 0 27 27" fill="none" xmlns="http://www.w3.org/2000/svg">
<path d="M23.9193 13.0839C23.9193 13.0839 9.64325 13.0839 5.70961 13.0839L6.31778 12.6513C10.838 10.0404 20.8403 3.76582 20.8403 3.76582C21.2556 3.52618 21.3983 2.99328 21.1596 2.57803L20.2875 0.435155C20.0479 0.0181732 19.515 -0.122839 19.0997 0.116795L2.64453 10.1166C2.22928 10.3579 2.08827 10.8917 2.32704 11.307L3.90326 13.0147L3.91537 26.1306C3.91537 26.6124 4.30554 27 4.78567 27H23.9193C24.4011 27 24.7895 26.6124 24.7895 26.1306V13.9551C24.7895 13.4741 24.4002 13.0839 23.9193 13.0839ZM17.6118 13.7059L14.9265 16.3151H11.4479L14.0588 13.7059H17.6118ZM16.4776 2.49498L19.5643 0.51388L19.1144 3.42064L15.9551 5.44845L16.4776 2.49498ZM10.9747 5.88101L14.1159 3.92413L13.5553 6.87069L10.4175 8.82756L10.9747 5.88101ZM4.71646 12.3944L5.24158 9.43919L8.35943 7.44772L7.83085 10.3986L4.71646 12.3944ZM7.9684 13.7059H11.447L8.83783 16.3151H5.3601L7.9684 13.7059ZM23.292 25.9394H5.3973V17.6724H23.2929V25.9394H23.292ZM21.0705 16.3142H17.5356L20.1465 13.705H23.6L21.0705 16.3142Z" fill="white"/>
</svg>
