<svg width="26" height="26" viewBox="0 0 26 26" fill="none" xmlns="http://www.w3.org/2000/svg">
<path d="M10.6284 5.4081C9.25519 4.40167 7.84631 3.16124 6.84359 1.65715L5.96578 0.340492C5.77982 0.0615501 5.43319 -0.0626608 5.11108 0.0340267C4.78974 0.131476 4.57031 0.427531 4.57031 0.763042V12.7141C4.12039 12.4517 3.6043 12.2904 3.04688 12.2904C1.36647 12.2904 0 13.6569 0 15.3373C0 17.0177 1.36647 18.3841 3.04688 18.3841C4.72728 18.3841 6.09375 17.0176 6.09375 15.3372V3.26407C7.17011 4.6246 8.51652 5.7488 9.72755 6.63696C10.3226 7.07287 10.6641 7.74536 10.6641 8.48174C10.6641 9.74183 9.63899 10.7669 8.37891 10.7669C7.95788 10.7669 7.61719 11.1076 7.61719 11.5286C7.61719 11.9496 7.95788 12.2903 8.37891 12.2903C10.4789 12.2903 12.1875 10.5817 12.1875 8.48174C12.1875 7.27294 11.605 6.12442 10.6284 5.4081Z" fill="white"/>
<path d="M25.0293 6.22421L14.2636 9.27109C13.9364 9.36483 13.7109 9.66383 13.7109 10.0038V20.3299C13.261 20.0675 12.7449 19.9062 12.1875 19.9062C10.5071 19.9062 9.14062 21.2726 9.14062 22.953C9.14062 24.6334 10.5071 25.9999 12.1875 25.9999C13.8679 25.9999 15.2344 24.6334 15.2344 22.953C15.2344 22.7794 15.2344 13.6255 15.2344 13.6255L24.4766 11.0139V17.283C24.0266 17.0206 23.5106 16.8593 22.9531 16.8593C21.2727 16.8593 19.9062 18.2258 19.9062 19.9062C19.9062 21.5866 21.2727 22.953 22.9531 22.953C24.6335 22.953 26 21.5866 26 19.9062C26 19.7325 26 6.95694 26 6.95694C26 6.45314 25.5181 6.08614 25.0293 6.22421Z" fill="white"/>
</svg>
