<svg width="37" height="34" viewBox="0 0 37 34" fill="none" xmlns="http://www.w3.org/2000/svg">
<g id="doner-kebab 1">
<g id="Group">
<path id="Vector" d="M25.3578 2.80896C25.1951 2.71523 24.9911 2.70505 24.8183 2.78201C24.7068 2.83166 24.5967 2.8838 24.4863 2.93543C24.0831 2.51187 23.4824 2.25754 22.8953 2.27123C22.5373 1.92881 22.0134 1.72589 21.4519 1.72589C21.1747 1.72589 20.9125 1.77605 20.6773 1.87264C20.4422 1.77598 20.1799 1.72589 19.9027 1.72589C19.3922 1.72589 18.9131 1.89388 18.5611 2.18145V1.95451C18.5611 0.876784 17.6068 0 16.4341 0H15.1885C14.0162 0 13.0623 0.876784 13.0623 1.95451V3.20074C12.7732 3.05435 12.4795 2.91463 12.1814 2.78194C12.0087 2.70505 11.8049 2.71515 11.6419 2.80896C11.4792 2.90269 11.3804 3.0668 11.3804 3.24329V33.4873C11.3804 33.6638 11.4792 33.8279 11.6419 33.9216C11.7322 33.9736 11.835 33.9999 11.9382 33.9999H25.0615C25.1647 33.9999 25.2676 33.9736 25.3578 33.9216C25.5205 33.8279 25.6193 33.6638 25.6193 33.4873V3.24329C25.6194 3.0668 25.5206 2.90277 25.3578 2.80896ZM17.0932 4.32717C18.3484 4.32717 19.3769 5.23566 19.4409 6.37461C19.1146 6.68605 18.8015 7.00893 18.5014 7.3419C17.6511 6.3965 16.6956 5.53869 15.6518 4.78097C16.0595 4.48893 16.5622 4.32717 17.0932 4.32717ZM24.5037 4.08514V32.6459C22.4734 31.6205 20.6597 30.2225 19.2029 28.5583C19.4303 28.2718 19.6493 27.9787 19.8582 27.6787C21.7929 24.8998 22.8156 21.6793 22.8156 18.3654C22.8156 15.0515 21.7929 11.831 19.8582 9.05204C19.6492 8.75187 19.4302 8.45866 19.2026 8.17204C20.6579 6.50972 22.4717 5.11197 24.5037 4.08514ZM18.5017 29.3884C19.7613 30.7864 21.2593 32.0016 22.9212 32.9748H14.081C15.7494 31.9999 17.2409 30.7901 18.5017 29.3884ZM19.1791 3.08174C19.3083 2.88402 19.5992 2.75118 19.9027 2.75118C20.0726 2.75118 20.2275 2.79417 20.3388 2.8723C20.5387 3.01254 20.816 3.01254 21.0159 2.8723C21.1271 2.79424 21.282 2.75118 21.4519 2.75118C21.755 2.75118 22.0455 2.88402 22.1747 3.08174C22.3029 3.278 22.5572 3.37254 22.7982 3.31271C23.0044 3.26167 23.2531 3.32413 23.4572 3.45492C22.3659 4.04801 21.3395 4.74297 20.3974 5.52441C20.0404 4.49237 19.1257 3.68699 17.98 3.40813C18.0413 3.3762 18.1061 3.34954 18.1734 3.33007C18.3076 3.29045 18.4441 3.28481 18.554 3.31242C18.7952 3.37254 19.0506 3.27851 19.1791 3.08174ZM14.1781 1.95451C14.1781 1.44212 14.6314 1.02522 15.1886 1.02522H16.4342C16.9918 1.02522 17.4455 1.44212 17.4455 1.95451V2.50747C17.0674 2.69999 16.7599 2.99416 16.5761 3.33819C15.8841 3.43288 15.245 3.71599 14.7336 4.15464C14.5507 4.03769 14.3656 3.9236 14.1782 3.81258V1.95451H14.1781ZM12.4961 4.08448C15.1006 5.3975 17.3089 7.29262 18.9184 9.60449C20.7381 12.2181 21.6999 15.2476 21.6999 18.3653C21.6999 21.483 20.7381 24.5125 18.9184 27.1261C17.3089 29.438 15.1006 31.3331 12.4961 32.6461V4.08448Z" fill="white"/>
<path id="Vector_2" d="M14.7812 8.58917C14.4731 8.58917 14.2234 8.81868 14.2234 9.10178V26.8967C14.2234 27.1798 14.4731 27.4093 14.7812 27.4093C15.0893 27.4093 15.3391 27.1798 15.3391 26.8967V9.10178C15.3391 8.81868 15.0893 8.58917 14.7812 8.58917Z" fill="white"/>
<path id="Vector_3" d="M16.9331 25.5785C17.2412 25.5785 17.4909 25.349 17.4909 25.0659V10.9325C17.4909 10.6494 17.2412 10.4199 16.9331 10.4199C16.625 10.4199 16.3752 10.6494 16.3752 10.9325V25.0659C16.3752 25.349 16.625 25.5785 16.9331 25.5785Z" fill="white"/>
<path id="Vector_4" d="M19.0847 22.3564C19.3928 22.3564 19.6425 22.1269 19.6425 21.8438V14.1546C19.6425 13.8715 19.3928 13.642 19.0847 13.642C18.7766 13.642 18.5269 13.8715 18.5269 14.1546V21.8438C18.5269 22.1269 18.7766 22.3564 19.0847 22.3564Z" fill="white"/>
</g>
</g>
</svg>
