<svg width="34" height="39" viewBox="0 0 34 39" fill="none" xmlns="http://www.w3.org/2000/svg">
<g filter="url(#filter0_d)">
<path d="M4.75006 8.56064C4.74061 8.62189 4.73529 8.68395 4.73357 8.74602V10.0209C4.73494 10.5463 5.00862 11.016 5.42144 11.2005V13.0764C5.42333 13.7044 5.83753 14.2206 6.36357 14.2503V25.0875C5.83753 25.1174 5.42333 25.6336 5.42144 26.2614V28.1317C5.00776 28.3212 4.73426 28.7944 4.73357 29.3224V30.5695C4.73357 30.8019 4.89197 30.9906 5.08695 30.9906H28.9137C29.1087 30.9906 29.2669 30.8019 29.2669 30.5695V29.3224C29.2663 28.7942 28.9928 28.321 28.5792 28.1317V26.2503C28.5774 25.6223 28.163 25.1061 27.6371 25.0764V14.2503C28.163 14.2206 28.5774 13.7044 28.5792 13.0764V11.2005C28.9919 11.016 29.2656 10.5463 29.2669 10.0209V8.75442C29.2654 8.69235 29.2599 8.63029 29.2505 8.56904C29.4281 8.66286 29.6358 8.5674 29.7145 8.3556C29.7932 8.14401 29.7131 7.89637 29.5356 7.80235L17.1629 0.0487604C17.0596 -0.0161721 16.9363 -0.0161721 16.833 0.0487604L4.46041 7.79395C4.28776 7.90272 4.22162 8.15732 4.3125 8.36318C4.39565 8.55122 4.58325 8.63602 4.75006 8.56064ZM6.12804 11.9306V11.2819H10.2027V11.925L6.12804 11.9306ZM15.2008 14.2532V25.0875C14.6747 25.1174 14.2605 25.6336 14.2586 26.2614V28.0531H10.9045V26.2614C10.9026 25.6336 10.4884 25.1174 9.96236 25.0875V14.2503C10.4884 14.2206 10.9026 13.7044 10.9045 13.0764V11.2819H14.2538V13.0738C14.2547 13.7028 14.6692 14.2202 15.1961 14.2503L15.2008 14.2532ZM14.9652 11.9306V11.2819H19.0401V11.925L14.9652 11.9306ZM24.0382 14.2532V25.0875C23.5121 25.1174 23.0977 25.6336 23.0959 26.2614V28.0531H19.7419V26.2614C19.74 25.6336 19.3256 25.1174 18.7997 25.0875V14.2503C19.3256 14.2206 19.74 13.7044 19.7419 13.0764V11.2819H23.0912V13.0738C23.0919 13.7028 23.5064 14.2202 24.0333 14.2503L24.0382 14.2532ZM23.8026 11.9306V11.2819H27.8773V11.925L23.8026 11.9306ZM27.8773 27.4101V28.0531H23.7978V27.4101H27.8773ZM19.0401 27.4101V28.0531H14.9606V27.4101H19.0401ZM15.5494 13.4162H15.2432C15.087 13.4162 14.9606 13.2655 14.9606 13.0793V12.7731H19.0353V13.0793C19.0353 13.2655 18.9088 13.4162 18.7527 13.4162H15.5494ZM18.0955 14.2587V25.0819H15.9027V14.2587H18.0955ZM15.5494 25.9244H18.7527C18.9088 25.9244 19.0353 26.0752 19.0353 26.2614V26.5676H14.9606V26.2614C14.9606 26.0752 15.087 25.9244 15.2432 25.9244H15.5494ZM10.1981 27.4101V28.0531H6.12323V27.4101H10.1981ZM6.12323 13.0877V12.7731H10.1981V13.0793C10.1981 13.2655 10.0716 13.4162 9.91529 13.4162H6.39879C6.24452 13.4117 6.12186 13.2604 6.12323 13.0764V13.0877ZM9.25594 14.2671V25.0819H7.06536V14.2587L9.25594 14.2671ZM6.12323 26.27C6.12323 26.0836 6.24967 25.9328 6.40584 25.9328H9.91529C10.0716 25.9328 10.1981 26.0836 10.1981 26.27V26.576H6.12323V26.27ZM28.5604 29.3394V30.1649H5.43553V29.3394C5.43553 29.099 5.59891 28.9039 5.8006 28.9039H28.1953C28.3941 28.9039 28.5566 29.0938 28.5604 29.3308V29.3394ZM27.8727 26.27V26.576H23.7978V26.27C23.7978 26.0836 23.9243 25.9328 24.0804 25.9328H27.5971C27.7478 25.9373 27.8689 26.0817 27.8727 26.2614V26.27ZM24.7399 25.0903V14.2587H26.9328V25.0819L24.7399 25.0903ZM27.8727 13.0877C27.8727 13.2739 27.7462 13.4246 27.59 13.4246H24.0828C23.9267 13.4246 23.8002 13.2739 23.8002 13.0877V12.7731H27.8749L27.8727 13.0877ZM16.9979 0.891243L27.5193 7.48506H6.47662L16.9979 0.891243ZM5.43553 8.75442C5.43553 8.52193 5.59375 8.33328 5.78874 8.33328H28.2071C28.4021 8.33328 28.5604 8.52193 28.5604 8.75442V10.0295C28.5604 10.262 28.4021 10.4506 28.2071 10.4506H5.78874C5.59375 10.4506 5.43553 10.262 5.43553 10.0295V8.75442Z" fill="white"/>
</g>
<defs>
<filter id="filter0_d" x="0" y="0" width="34" height="39" filterUnits="userSpaceOnUse" color-interpolation-filters="sRGB">
<feFlood flood-opacity="0" result="BackgroundImageFix"/>
<feColorMatrix in="SourceAlpha" type="matrix" values="0 0 0 0 0 0 0 0 0 0 0 0 0 0 0 0 0 0 127 0"/>
<feOffset dy="4"/>
<feGaussianBlur stdDeviation="2"/>
<feColorMatrix type="matrix" values="0 0 0 0 0 0 0 0 0 0 0 0 0 0 0 0 0 0 0.25 0"/>
<feBlend mode="normal" in2="BackgroundImageFix" result="effect1_dropShadow"/>
<feBlend mode="normal" in="SourceGraphic" in2="effect1_dropShadow" result="shape"/>
</filter>
</defs>
</svg>
