<svg fill="#ffffff" id="Layer_1" enable-background="new 0 0 512 512" height="26" viewBox="0 0 512 512" width="512" xmlns="http://www.w3.org/2000/svg"><g><path d="m191.734 0c-6.293 0-11.917 3.928-14.083 9.836l-176.733 482c-2.012 5.485-.655 11.639 3.477 15.771 4.393 4.394 10.634 5.359 15.77 3.477l123.777-45.381c.447 25.605 21.415 46.297 47.125 46.297 25.989 0 47.134-21.144 47.134-47.133v-33.73l34.934-12.806v46.536c0 26.049 21.054 47.133 47.133 47.133 25.989 0 47.134-21.144 47.134-47.133v-81.104l134.763-49.413c5.908-2.166 9.836-7.791 9.836-14.083-.009-176.596-143.68-320.267-320.267-320.267zm155.502 359.204c-5.908 2.167-9.836 7.79-9.836 14.083v91.58c0 9.447-7.687 17.133-17.134 17.133-4.516 0-8.934-1.828-12.119-5.013-3.187-3.187-5.014-7.604-5.014-12.121v-68.01c0-10.323-10.276-17.706-20.163-14.083l-64.933 23.803c-5.909 2.166-9.838 7.79-9.838 14.083v44.208c0 9.447-7.687 17.133-17.134 17.133s-17.133-7.686-17.133-17.133v-20.638c0-10.388-10.357-17.677-20.163-14.083l-113.543 41.629 129.101-352.088c120.562 5.305 217.682 102.426 222.986 222.987zm74.463-27.305c-10.258-128.512-113.086-231.34-241.597-241.598l22.041-60.117c151.782 5.382 274.284 127.884 279.673 279.673z"/><path d="m223.851 176.733c-25.98 0-47.117 21.137-47.117 47.117v.016c0 8.284 6.716 14.992 15 14.992s15-6.724 15-15.008c0-9.438 7.679-17.117 17.133-17.117 8.284 0 14.992-6.716 14.992-15s-6.724-15-15.008-15z"/><path d="m288.134 253.596c-8.284 0-15 6.716-15 15s6.716 15 15 15c9.447 0 17.133 7.686 17.133 17.133 0 8.284 6.716 15 15 15s15-6.716 15-15c0-25.989-21.144-47.133-47.133-47.133z"/><path d="m207.8 305.267c-8.284 0-15 6.716-15 15 0 9.447-7.686 17.133-17.133 17.133-8.284 0-15 6.716-15 15s6.716 15 15 15c25.989 0 47.133-21.144 47.133-47.133 0-8.285-6.716-15-15-15z"/></g></svg>