<svg id="Capa_1" enable-background="new 0 0 512 512" height="512" viewBox="0 0 512 512" width="512" xmlns="http://www.w3.org/2000/svg" xmlns:xlink="http://www.w3.org/1999/xlink"><linearGradient id="SVGID_1_" gradientUnits="userSpaceOnUse" x1="15.84" x2="558.827" y1="-84.975" y2="571.716"><stop offset=".0009507276" stop-color="#b3b3ff"/><stop offset=".992" stop-color="#ffe8dc" stop-opacity="0"/></linearGradient><g><path d="m213.801 18.895c-21.113-15.7-48.009-21.438-74.078-17.877-33.788 4.615-71.455 16.884-89.49 47.23-36.883 62.059-32.785 168.609 26.637 170.658s129.388 2.049 129.239 112.697c-.15 110.648 44.929 231.541 110.498 157.776s114.747-79.913 102.453-151.629 66.428-82.509 66.428-139.87c0-53.422-38.46 4.82-77.392-40.259s-56.654-139.521-134.517-131.325c-34.065 3.586-51.237-1.05-59.778-7.401z" fill="url(#SVGID_1_)"/><g><path d="m378.523 226.752 59.751-59.75c5.073-5.073 5.073-13.298 0-18.371l-3.536-3.536c-1.953-1.953-5.118-1.953-7.071 0l-47.32 47.32c-3.905 3.905-10.237 3.905-14.142 0l-2.114-2.114c-3.905-3.905-3.905-10.237 0-14.142l44.491-44.491c3.515-3.515 3.515-9.213 0-12.728l-3.521-3.521c-3.515-3.515-9.213-3.515-12.728 0l-44.491 44.491c-3.905 3.905-10.237 3.905-14.142 0l-2.114-2.114c-3.905-3.905-3.905-10.237 0-14.142l47.32-47.32c1.953-1.953 1.953-5.118 0-7.071l-3.536-3.536c-5.073-5.073-13.298-5.073-18.371 0l-59.751 59.751c-18.079 18.079-20.315 45.987-6.727 66.501l-34.521 34.521-45.595-45.595c12.79-21.656 10.083-49.687-14.244-74.014-29.165-29.165-80.787-44.401-103.229-21.959s-7.206 74.064 21.959 103.229c24.327 24.327 52.358 27.034 74.014 14.244l45.595 45.595-.686.686c-6.306-1.224-13.088.605-17.972 5.489l-140.062 140.062c-7.81 7.81-7.81 20.474 0 28.284l5.699 5.699c7.81 7.81 20.474 7.81 28.284 0l140.062-140.062c2.217-2.217 3.783-4.832 4.741-7.61l135.424 135.424c7.81 7.81 20.474 7.81 28.284 0l5.699-5.699c7.81-7.81 7.81-20.474 0-28.284l-140.062-140.061c-.057-.057-.12-.104-.178-.161l28.288-28.288c20.514 13.589 48.423 11.352 66.502-6.727z" fill="#00c" opacity=".1"/><g><path d="m438.274 124.631-3.536-3.536c-1.953-1.953-5.118-1.953-7.071 0l-47.32 47.32c-3.905 3.905-10.237 3.905-14.142 0l-2.114-2.114c-3.905-3.905-3.905-10.237 0-14.142l44.491-44.491c3.515-3.515 3.515-9.213 0-12.728l-3.521-3.521c-3.515-3.515-9.213-3.515-12.728 0l-44.491 44.491c-3.905 3.905-10.237 3.905-14.142 0l-2.114-2.114c-3.905-3.905-3.905-10.237 0-14.142l47.32-47.32c1.953-1.953 1.953-5.118 0-7.071l-3.536-3.536c-5.073-5.073-13.298-5.073-18.371 0l-59.751 59.751c-18.079 18.079-20.315 45.987-6.727 66.501l-69.841 69.841 21.5 21.5 69.841-69.841c20.514 13.589 48.423 11.353 66.502-6.726l59.751-59.751c5.073-5.073 5.073-13.298 0-18.371z" fill="#ffb3b3"/><path d="m316.25 192.293c2.187 2.187 4.717 4.027 7.55 5.268 12.248 5.365 27.055 3.037 37.083-6.992 1.786-1.786 1.786-4.681 0-6.467l-44.984-44.984c-1.786-1.786-4.681-1.786-6.467 0-9.759 9.759-12.226 24.041-7.408 36.089 1.289 3.224 3.269 6.129 5.724 8.584z" fill="#ff9494"/><g><path d="m81.478 424.22-5.699-5.699c-7.81-7.81-7.81-20.474 0-28.284l140.062-140.062c7.81-7.81 20.474-7.81 28.284 0l5.699 5.699c7.81 7.81 7.81 20.474 0 28.284l-140.061 140.062c-7.811 7.811-20.474 7.811-28.285 0z" fill="#ff4d4d"/><path d="m249.82 284.16-4.43 4.43-6.07-6.07c-6.29-6.29-9.67-14.4-10.16-22.65l-11.39-11.39c7.84-6.07 19.16-5.5 26.36 1.7l5.69 5.69c7.81 7.81 7.81 20.48 0 28.29z" fill="#ff2c2c"/><g fill="#ffab66"><path d="m97.298 368.536h20.272v48.059h-20.272z" transform="matrix(.707 -.707 .707 .707 -246.119 190.947)"/><path d="m114.805 336.029h50.272v48.059h-50.272z" transform="matrix(.707 -.707 .707 .707 -213.612 204.412)"/></g></g></g><g><path d="m196.161 102.891c-29.165-29.165-80.787-44.401-103.229-21.959s-7.206 74.064 21.959 103.229c24.327 24.327 52.358 27.034 74.014 14.244l68.667 68.667 21.5-21.5-68.667-68.667c12.79-21.656 10.083-49.687-14.244-74.014z" fill="#ffc599"/><path d="m182.543 113.804c21.978 21.978 21.562 46.966 5.894 62.634s-40.656 16.084-62.634-5.894-34.467-59.87-18.799-75.538 53.561-3.18 75.539 18.798z" fill="#ffab66"/><g><path d="m423.973 406.274-5.699 5.699c-7.81 7.81-20.474 7.81-28.284 0l-140.062-140.062c-7.81-7.81-7.81-20.474 0-28.284l5.699-5.699c7.81-7.81 20.474-7.81 28.284 0l140.062 140.062c7.81 7.81 7.81 20.473 0 28.284z" fill="#ff9d33"/><path d="m368.288 370.182h48.059v20.272h-48.059z" fill="#ff4d4d" transform="matrix(.707 -.707 .707 .707 -154.018 388.803)"/><path d="m335.782 322.675h48.059v50.272h-48.059z" fill="#ff4d4d" transform="matrix(.707 -.707 .707 .707 -140.554 356.297)"/><path d="m382.059 206.288 59.75-59.75c3.398-3.398 5.27-7.916 5.27-12.721s-1.871-9.323-5.269-12.721l-3.535-3.535c-3.899-3.898-10.243-3.898-14.143 0l-47.319 47.319c-.944.944-2.2 1.465-3.536 1.465s-2.591-.521-3.536-1.465l-2.114-2.114c-1.95-1.949-1.95-5.122 0-7.071l44.491-44.491c5.458-5.458 5.458-14.341 0-19.799l-3.521-3.522c-5.459-5.458-14.341-5.458-19.799 0l-44.491 44.491c-.944.944-2.2 1.465-3.535 1.465-1.336 0-2.591-.521-3.536-1.465l-2.114-2.114c-1.95-1.949-1.95-5.122 0-7.071l47.319-47.319c3.899-3.899 3.899-10.244 0-14.142l-3.536-3.536c-7.014-7.014-18.427-7.014-25.442 0l-59.75 59.751c-18.394 18.394-22.112 46.925-9.51 69.284l-6.78 6.78c-1.953 1.953-1.953 5.119 0 7.071s5.118 1.952 7.071 0l9.563-9.563c1.681-1.682 1.946-4.314.633-6.297-12.493-18.861-9.93-44.18 6.094-60.204l59.75-59.751c3.116-3.115 8.185-3.115 11.3 0l3.535 3.536-47.319 47.319c-5.848 5.849-5.848 15.365 0 21.213l2.114 2.114c2.833 2.833 6.6 4.394 10.607 4.394 4.006 0 7.773-1.561 10.606-4.394l44.491-44.491c1.559-1.558 4.097-1.56 5.657 0l3.521 3.522c1.56 1.56 1.56 4.097 0 5.657l-44.491 44.491c-5.848 5.849-5.848 15.365 0 21.213l2.114 2.114c2.833 2.833 6.6 4.394 10.607 4.394s7.773-1.561 10.607-4.394l47.319-47.319 3.535 3.535c1.509 1.509 2.34 3.516 2.34 5.65s-.831 4.14-2.34 5.649l-59.75 59.75c-16.024 16.024-41.343 18.587-60.205 6.094-1.982-1.314-4.615-1.048-6.297.633l-25.138 25.138c-4.704-3.044-10.212-4.347-15.607-3.912l-51.15-51.149c12.47-24.549 6.187-53.583-16.895-76.665-14.905-14.905-36.028-26.74-56.503-31.659-22.928-5.507-42.033-2.063-53.796 9.7-10.06 10.06-14.104 26.038-11.387 44.988 2.408 16.795 10.094 35.283 21.087 50.725 1.602 2.25 4.724 2.776 6.973 1.173 2.25-1.602 2.775-4.724 1.173-6.973-24.369-34.229-24.616-69-10.774-82.841 9.074-9.075 25.254-11.643 44.39-7.047 18.758 4.506 38.111 15.349 51.768 29.006 21.1 21.1 26.137 46.496 13.475 67.936-1.16 1.964-.844 4.465.77 6.078l50.133 50.133c-1.753 1.041-3.406 2.312-4.912 3.818l-5.699 5.699c-1.506 1.506-2.778 3.159-3.819 4.911l-50.134-50.132c-1.613-1.612-4.113-1.93-6.078-.77-16.782 9.911-36.693 8.955-54.631-2.621-2.32-1.497-5.414-.83-6.912 1.49-1.497 2.32-.83 5.415 1.49 6.912 20.046 12.937 42.323 14.581 61.712 4.711l35.579 35.579c-4.212 1.114-8.135 3.309-11.294 6.468l-140.062 140.062c-9.748 9.748-9.748 25.608 0 35.355l5.699 5.7c4.874 4.874 11.276 7.311 17.678 7.311s12.804-2.437 17.678-7.311l140.061-140.062c.892-.893 1.683-1.858 2.422-2.858l130.672 130.672c4.722 4.722 11 7.322 17.678 7.322s12.956-2.601 17.678-7.322l5.699-5.699c4.722-4.722 7.322-11 7.322-17.678s-2.601-12.956-7.322-17.678l-136.696-136.694 21.961-21.961c22.36 12.603 50.891 8.884 69.285-9.51zm-135.77 74.335-140.062 140.062c-5.848 5.85-15.364 5.849-21.213 0l-5.699-5.7c-5.849-5.848-5.849-15.365 0-21.213l140.062-140.062c3.572-3.571 8.77-5.093 13.696-4.066l6.096 6.096c-.57 7.06 1.834 14.317 7.223 19.706l2.193 2.193c-.637 1.077-1.394 2.082-2.296 2.984zm178.542 111.508c0 4.007-1.56 7.773-4.394 10.606l-5.699 5.699c-2.833 2.833-6.6 4.394-10.606 4.394s-7.773-1.56-10.606-4.394l-140.063-140.061c-2.833-2.833-4.394-6.6-4.394-10.606s1.56-7.773 4.394-10.606l5.699-5.699c2.833-2.833 6.6-4.394 10.606-4.394s7.773 1.56 10.606 4.394l140.062 140.062c2.835 2.832 4.395 6.599 4.395 10.605z" fill="#00c"/></g></g><path d="m269.793 348.162h-13.793c-2.761 0-5 2.239-5 5s2.239 5 5 5h1.722l-5.258 5.258c-1.953 1.953-1.953 5.119 0 7.071.977.976 2.256 1.464 3.536 1.464s2.559-.488 3.536-1.464l5.258-5.258v1.722c0 2.761 2.239 5 5 5s5-2.239 5-5v-13.793c-.001-2.761-2.239-5-5.001-5z" fill="#ff8b00"/><g fill="#4d4dff"><path d="m113.846 225.207h-13.793c-2.761 0-5 2.239-5 5s2.239 5 5 5h1.722l-5.258 5.258c-1.953 1.953-1.953 5.119 0 7.071.977.976 2.256 1.464 3.536 1.464s2.559-.488 3.536-1.464l5.258-5.258v1.722c0 2.761 2.239 5 5 5s5-2.239 5-5v-13.793c-.001-2.762-2.24-5-5.001-5z"/><path d="m415.254 255.439h-1.722l5.258-5.258c1.953-1.953 1.953-5.119 0-7.071s-5.118-1.952-7.071 0l-5.258 5.258v-1.723c0-2.761-2.239-5-5-5s-5 2.239-5 5v13.793c0 2.761 2.239 5 5 5h13.794c2.761 0 5-2.239 5-5s-2.239-4.999-5.001-4.999z"/></g><g fill="#ff4d4d"><path d="m285.969 71.075h-1.722l5.258-5.258c1.953-1.953 1.953-5.119 0-7.071s-5.118-1.952-7.071 0l-5.258 5.258v-1.722c0-2.761-2.239-5-5-5s-5 2.239-5 5v13.793c0 2.761 2.239 5 5 5h13.793c2.761 0 5-2.239 5-5s-2.239-5-5-5z"/><path d="m115.608 278.158c-1.953-1.952-5.118-1.952-7.071 0l-5.258 5.258v-1.723c0-2.761-2.239-5-5-5s-5 2.239-5 5v13.793c0 2.761 2.239 5 5 5h13.794c2.761 0 5-2.239 5-5s-2.239-5-5-5h-1.722l5.258-5.258c1.952-1.952 1.952-5.118-.001-7.07z"/></g></g></g></svg>