<svg width="23" height="23" viewBox="0 0 23 23" fill="none" xmlns="http://www.w3.org/2000/svg">
<g clip-path="url(#clip0)">
<path d="M7.28744 14.3533C7.18971 14.3615 7.09222 14.3657 6.9945 14.3657C6.72715 14.3657 6.46713 14.3269 6.21251 14.268L0.320891 20.1598C0.0317082 20.4486 0.0317082 20.9176 0.320891 21.2064L1.8457 22.7316C2.13488 23.0204 2.60341 23.0204 2.89179 22.7316L9.97274 15.652L8.66047 14.2361L7.28744 14.3533Z" fill="white"/>
<path d="M22.792 4.91436C22.5155 4.638 22.068 4.638 21.7916 4.91436L17.9735 8.7323C17.6123 9.09319 17.0271 9.09319 16.6658 8.7323C16.3062 8.37169 16.3062 7.78698 16.6658 7.42647L20.465 3.62811C20.752 3.34081 20.752 2.87505 20.465 2.58709C20.1766 2.30016 19.711 2.30016 19.424 2.58709L15.6264 6.38507C15.2651 6.74634 14.6806 6.74634 14.3194 6.38507C13.9588 6.0246 13.9588 5.43947 14.3194 5.07929L18.1366 1.26172C18.4138 0.984937 18.4138 0.536604 18.1366 0.259443C17.8601 -0.0173893 17.4118 -0.0173893 17.1345 0.259443L12.8396 4.55459C11.807 5.58787 11.4808 7.03824 11.8151 8.35798L14.6943 11.2373C16.0139 11.5704 17.465 11.2441 18.4965 10.2116L22.792 5.91673C23.0693 5.63995 23.0693 5.19114 22.792 4.91436Z" fill="white"/>
<path d="M1.92973 0.647624C1.78255 0.500403 1.58354 0.419678 1.37916 0.419678C1.33568 0.419678 1.29196 0.423388 1.24927 0.430526C1.00061 0.472602 0.787273 0.632221 0.677667 0.859416C-0.580406 3.45976 -0.0546354 6.57127 1.98758 8.61359L5.64116 12.2667C6.00163 12.6276 6.48903 12.8274 6.99452 12.8274C7.04857 12.8274 7.10276 12.8251 7.15681 12.8206L9.27807 12.6396L18.5279 22.6182C18.6715 22.7733 18.8727 22.8634 19.0846 22.8676C19.089 22.8676 19.0936 22.8676 19.0982 22.8676C19.3054 22.8676 19.5037 22.7857 19.6509 22.6396L21.2351 21.0551C21.3815 20.909 21.4633 20.7108 21.4633 20.5042C21.4633 20.2977 21.3815 20.0993 21.2357 19.9533L1.92973 0.647624Z" fill="white"/>
</g>
<defs>
<clipPath id="clip0">
<rect width="23" height="23" fill="white"/>
</clipPath>
</defs>
</svg>
