<svg width="28" height="27" viewBox="0 0 28 27" fill="none" xmlns="http://www.w3.org/2000/svg">
<path d="M14.0001 4.79822C15.372 4.79822 16.488 3.722 16.488 2.39911C16.488 1.07627 15.372 0 14.0001 0C12.6281 0 11.512 1.07627 11.512 2.39916C11.512 3.722 12.6281 4.79822 14.0001 4.79822ZM14.0001 1.15397C14.7121 1.15397 15.2913 1.71255 15.2913 2.39911C15.2913 3.08567 14.7121 3.64425 14.0001 3.64425C13.288 3.64425 12.7087 3.08567 12.7087 2.39911C12.7087 1.71255 13.288 1.15397 14.0001 1.15397Z" fill="white"/>
<path d="M17.4741 19.5434H16.3743L18.6664 7.35753C18.6674 7.35236 18.6683 7.3472 18.6692 7.34203C18.7626 6.7545 18.598 6.17218 18.2172 5.74455C17.8365 5.31687 17.2647 5.07156 16.6483 5.07156H11.3519C10.7356 5.07156 10.1637 5.31687 9.78305 5.74455C9.40238 6.17223 9.23769 6.75444 9.33103 7.34198C9.33194 7.34714 9.3328 7.35231 9.33382 7.35747L11.6261 19.5434H10.526C9.54667 19.5434 8.75 20.3116 8.75 21.256V26.4229C8.75 26.7416 9.01789 26.9999 9.34836 26.9999H18.6518C18.9823 26.9999 19.2502 26.7416 19.2502 26.4229V21.256C19.2502 20.3117 18.4535 19.5434 17.4741 19.5434ZM10.5128 7.16015C10.4739 6.90468 10.5372 6.6691 10.6911 6.49617C10.8464 6.3217 11.0811 6.22559 11.3519 6.22559H16.6483C16.9192 6.22559 17.1538 6.3217 17.3092 6.49612C17.463 6.66905 17.5263 6.90462 17.4874 7.16009L15.1581 19.5434H12.8422L10.5128 7.16015ZM10.526 20.6974H17.4741C17.7936 20.6974 18.0535 20.948 18.0535 21.256V22.9881H9.94671V21.256C9.94671 20.948 10.2066 20.6974 10.526 20.6974ZM9.94671 25.846V24.1421H18.0535V25.846H9.94671Z" fill="white"/>
</svg>
